<?xml version="1.0" encoding="UTF-8"?>
<svg width="37px" height="37px" viewBox="0 0 37 37" version="1.1" xmlns="http://www.w3.org/2000/svg" xmlns:xlink="http://www.w3.org/1999/xlink">
    <!-- Generator: Sketch 52.1 (67048) - http://www.bohemiancoding.com/sketch -->
    <title>SPLA/btn_round_contract</title>
    <desc>Created with Sketch.</desc>
    <defs>
        <path d="M24,26 C23.448,26 23,25.552 23,25 C23,24.448 23.448,24 24,24 C24.552,24 25,24.448 25,25 C25,25.552 24.552,26 24,26 M11,20 C10.448,20 10,19.552 10,19 C10,18.448 10.448,18 11,18 C11.552,18 12,18.448 12,19 C12,19.552 11.552,20 11,20 M24,12 C24.552,12 25,12.448 25,13 C25,13.552 24.552,14 24,14 C23.448,14 23,13.552 23,13 C23,12.448 23.448,12 24,12 M24,22 C23.183,22 22.443,22.33 21.901,22.861 L13.966,19.335 C13.979,19.224 14,19.114 14,19 C14,18.886 13.979,18.776 13.966,18.665 L21.901,15.139 C22.443,15.67 23.183,16 24,16 C25.654,16 27,14.654 27,13 C27,11.346 25.654,10 24,10 C22.346,10 21,11.346 21,13 C21,13.114 21.021,13.224 21.034,13.335 L13.099,16.861 C12.557,16.33 11.817,16 11,16 C9.346,16 8,17.346 8,19 C8,20.654 9.346,22 11,22 C11.817,22 12.557,21.67 13.099,21.139 L21.034,24.665 C21.021,24.776 21,24.886 21,25 C21,26.654 22.346,28 24,28 C25.654,28 27,26.654 27,25 C27,23.346 25.654,22 24,22" id="path-1"></path>
    </defs>
    <g id="SPLA/btn_round_contract" stroke="none" stroke-width="1" fill="none" fill-rule="evenodd">
        <circle id="Oval-3-Copy" fill="#D08F25" cx="18.5" cy="18.5" r="18.5"></circle>
        <mask id="mask-2" fill="white">
            <use xlink:href="#path-1"></use>
        </mask>
        <use id="Mask" fill="#FFFFFF" xlink:href="#path-1"></use>
    </g>
</svg>