<?xml version="1.0" encoding="UTF-8"?>
<svg width="37px" height="37px" viewBox="0 0 37 37" version="1.1" xmlns="http://www.w3.org/2000/svg" xmlns:xlink="http://www.w3.org/1999/xlink">
    <!-- Generator: Sketch 52.1 (67048) - http://www.bohemiancoding.com/sketch -->
    <title>SPLA/btn_round_userList_disable</title>
    <desc>Created with Sketch.</desc>
    <g id="SPLA/btn_round_userList_disable" stroke="none" stroke-width="1" fill="none" fill-rule="evenodd">
        <circle id="Oval-3" fill="#8C8C8C" cx="18.5" cy="18.5" r="18.5"></circle>
        <rect id="Rectangle-20" fill="#B7B7B7" x="22.3684211" y="10" width="6.63157895" height="3.31578947"></rect>
        <rect id="Rectangle-20" fill="#B7B7B7" x="24.5789474" y="16.6315789" width="4.42105263" height="3.31578947"></rect>
        <rect id="Rectangle-20" fill="#B7B7B7" x="24.5789474" y="23.2631579" width="4.42105263" height="3.31578947"></rect>
        <path d="M11.8539944,19.0774284 C10.2706903,18.1309336 9.21052632,16.3998004 9.21052632,14.4210526 C9.21052632,11.4270879 11.6376143,9 14.6315789,9 C17.6255436,9 20.0526316,11.4270879 20.0526316,14.4210526 C20.0526316,16.3998004 18.9924676,18.1309336 17.4091635,19.0774284 C20.2499011,20.181173 22.2631579,22.928097 22.2631579,26.1440142 L20.2631579,26.1440142 C20.2631579,23.0612932 17.7433976,20.5593642 14.6315789,20.5593642 C11.5197603,20.5593642 9,23.0612932 9,26.1440142 L7,26.1440142 C7,22.928097 9.01325675,20.181173 11.8539944,19.0774284 Z M14.6315789,17.8421053 C16.5209741,17.8421053 18.0526316,16.3104478 18.0526316,14.4210526 C18.0526316,12.5316574 16.5209741,11 14.6315789,11 C12.7421838,11 11.2105263,12.5316574 11.2105263,14.4210526 C11.2105263,16.3104478 12.7421838,17.8421053 14.6315789,17.8421053 Z" id="Combined-Shape" fill="#B7B7B7" fill-rule="nonzero"></path>
    </g>
</svg>