<?xml version="1.0" encoding="UTF-8"?>
<svg width="37px" height="37px" viewBox="0 0 37 37" version="1.1" xmlns="http://www.w3.org/2000/svg" xmlns:xlink="http://www.w3.org/1999/xlink">
    <!-- Generator: Sketch 52.1 (67048) - http://www.bohemiancoding.com/sketch -->
    <title>SPLA/btn_round_resetPwd_disable</title>
    <desc>Created with Sketch.</desc>
    <g id="SPLA/btn_round_resetPwd_disable" stroke="none" stroke-width="1" fill="none" fill-rule="evenodd">
        <circle id="Oval" fill="#8C8C8C" cx="18.5" cy="18.5" r="18.5"></circle>
        <path d="M24,16 L13,16 L12,16 L12,27 L17,27 L17,24.6631844 C15.8175263,24.1014525 15,22.896198 15,21.5 C15,19.5670034 16.5670034,18 18.5,18 C20.4329966,18 22,19.5670034 22,21.5 C22,22.896198 21.1824737,24.1014525 20,24.6631844 L20,27 L25,27 L25,16 L24,16 Z M13,14 L13,12 C13,9.23857625 15.2385763,7 18,7 L19,7 C21.7614237,7 24,9.23857625 24,12 L24,14 L27,14 L27,29 L10,29 L10,14 L13,14 Z M18.5,23 C19.3284271,23 20,22.3284271 20,21.5 C20,20.6715729 19.3284271,20 18.5,20 C17.6715729,20 17,20.6715729 17,21.5 C17,22.3284271 17.6715729,23 18.5,23 Z M15.5,13.5 L21.5,13.5 L21.5,12 C21.5,10.6192881 20.3807119,9.5 19,9.5 L18,9.5 C16.6192881,9.5 15.5,10.6192881 15.5,12 L15.5,13.5 Z" id="Combined-Shape" fill="#B7B7B7" fill-rule="nonzero"></path>
    </g>
</svg>