<?xml version="1.0" encoding="UTF-8"?>
<svg width="37px" height="37px" viewBox="0 0 37 37" version="1.1" xmlns="http://www.w3.org/2000/svg" xmlns:xlink="http://www.w3.org/1999/xlink">
    <!-- Generator: Sketch 52.1 (67048) - http://www.bohemiancoding.com/sketch -->
    <title>SPLA/roundBtn-edit</title>
    <desc>Created with Sketch.</desc>
    <g id="SPLA/roundBtn-edit" stroke="none" stroke-width="1" fill="none" fill-rule="evenodd">
        <circle id="Oval" fill="#158B95" cx="18.5" cy="18.5" r="18.5"></circle>
        <path d="M25.9596639,9.28313305 C25.5752768,8.90562232 24.9539658,8.90562232 24.5695787,9.28313305 L15.7217946,17.9726384 C15.5713822,18.12036 15.4740566,18.3124946 15.4435809,18.5181462 L14.9520373,21.8973983 C14.9087815,22.1986345 15.0120057,22.5018017 15.230251,22.7171083 C15.4150714,22.8995879 15.6657586,23 15.9252936,23 C15.9714987,23 16.0177038,22.9971035 16.064892,22.990345 L19.5056969,22.5075947 C19.7160776,22.4786297 19.9107288,22.3820796 20.0611411,22.234358 L28.9089253,13.5448527 C29.2933123,13.1673419 29.2933123,12.5571456 28.9089253,12.1796348 L25.9596639,9.28313305 Z M18.9020814,20.641282 L17.0833702,20.8961742 L17.3429052,19.1099981 L25.2646213,11.3309598 L26.8237975,12.8622438 L18.9020814,20.641282 Z" id="Shape" fill="#FFFFFF" fill-rule="nonzero"></path>
        <path d="M11.1056517,27.6315789 L26.5847751,27.6315789 C27.1962005,27.6315789 27.6904268,27.145108 27.6904268,26.5457064 L27.6904268,18.9445983 L25.4791235,18.9445983 L25.4791235,25.4598338 L12.2113034,25.4598338 L12.2113034,12.4293629 L18.8452134,12.4293629 L18.8452134,10.2576177 L11.1056517,10.2576177 C10.4942263,10.2576177 10,10.7440886 10,11.3434903 L10,26.5457064 C10,27.145108 10.4942263,27.6315789 11.1056517,27.6315789 Z" id="Shape" fill="#FFFFFF" fill-rule="nonzero"></path>
    </g>
</svg>