<?xml version="1.0" encoding="UTF-8"?>
<svg width="37px" height="37px" viewBox="0 0 37 37" version="1.1" xmlns="http://www.w3.org/2000/svg" xmlns:xlink="http://www.w3.org/1999/xlink">
    <!-- Generator: Sketch 52.1 (67048) - http://www.bohemiancoding.com/sketch -->
    <title>SPLA/btn_round_delete_disable</title>
    <desc>Created with Sketch.</desc>
    <g id="SPLA/btn_round_delete_disable" stroke="none" stroke-width="1" fill="none" fill-rule="evenodd">
        <circle id="Oval-3-Copy" fill="#8C8C8C" cx="18.5" cy="18.5" r="14.5"></circle>
        <g id="Group" transform="translate(12.000000, 12.000000)" fill="#B7B7B7">
            <path d="M0.483764422,11.1656911 L11.1656911,0.483764422 C11.3610195,0.288436003 11.6259417,0.17870164 11.9021778,0.17870164 L11.9887482,0.17870164 C12.2095542,0.17870164 12.4213166,0.266416498 12.5774501,0.422549945 L12.5774501,0.422549945 C12.7335835,0.578683392 12.8212984,0.790445791 12.8212984,1.01125183 L12.8212984,1.09782217 C12.8212984,1.37405827 12.711564,1.63898046 12.5162356,1.83430888 L1.83430888,12.5162356 C1.63898046,12.711564 1.37405827,12.8212984 1.09782217,12.8212984 L1.01125183,12.8212984 C0.790445791,12.8212984 0.578683392,12.7335835 0.422549945,12.5774501 L0.422549945,12.5774501 C0.266416498,12.4213166 0.17870164,12.2095542 0.17870164,11.9887482 L0.17870164,11.9021778 C0.17870164,11.6259417 0.288436003,11.3610195 0.483764422,11.1656911 Z" id="Rectangle-Copy"></path>
            <path d="M1.83430888,0.483764422 L12.5162356,11.1656911 C12.711564,11.3610195 12.8212984,11.6259417 12.8212984,11.9021778 L12.8212984,11.9887482 C12.8212984,12.2095542 12.7335835,12.4213166 12.5774501,12.5774501 L12.5774501,12.5774501 C12.4213166,12.7335835 12.2095542,12.8212984 11.9887482,12.8212984 L11.9021778,12.8212984 C11.6259417,12.8212984 11.3610195,12.711564 11.1656911,12.5162356 L0.483764422,1.83430888 C0.288436003,1.63898046 0.17870164,1.37405827 0.17870164,1.09782217 L0.17870164,1.01125183 C0.17870164,0.790445791 0.266416498,0.578683392 0.422549945,0.422549945 L0.422549945,0.422549945 C0.578683392,0.266416498 0.790445791,0.17870164 1.01125183,0.17870164 L1.09782217,0.17870164 C1.37405827,0.17870164 1.63898046,0.288436003 1.83430888,0.483764422 Z" id="Rectangle-Copy-2"></path>
        </g>
    </g>
</svg>