<?xml version="1.0" encoding="UTF-8"?>
<svg width="30px" height="30px" viewBox="0 0 30 30" version="1.1" xmlns="http://www.w3.org/2000/svg" xmlns:xlink="http://www.w3.org/1999/xlink">
    <!-- Generator: Sketch 50.2 (55047) - http://www.bohemiancoding.com/sketch -->
    <title>images/btn_sourcedata</title>
    <desc>Created with Sketch.</desc>
    <defs></defs>
    <g id="images/btn_sourcedata" stroke="none" stroke-width="1" fill="none" fill-rule="evenodd">
        <g id="boxicon-detail" transform="translate(2.000000, 3.000000)" fill="#686868" fill-rule="nonzero">
            <path d="M5,5 L21,5 L21,7.6 L5,7.6 L5,5 Z M5,10.2 L16.9866667,10.2 L16.9866667,12.8 L5,12.8 L5,10.2 Z M5,15.4 L13,15.4 L13,18 L5,18 L5,15.4 Z" id="Shape"></path>
            <path d="M24.7,0 L1.3,0 C0.5811,0 0,0.596 0,1.33333333 L0,22.6666667 C0,23.404 0.5811,24 1.3,24 L24.7,24 C25.4189,24 26,23.404 26,22.6666667 L26,1.33333333 C26,0.596 25.4189,0 24.7,0 Z M23.4,21.3333333 L2.6,21.3333333 L2.6,2.66666667 L23.4,2.66666667 L23.4,21.3333333 Z" id="Shape"></path>
        </g>
    </g>
</svg>