<?xml version="1.0" encoding="UTF-8"?>
<svg width="20px" height="20px" viewBox="0 0 20 20" version="1.1" xmlns="http://www.w3.org/2000/svg" xmlns:xlink="http://www.w3.org/1999/xlink">
    <!-- Generator: Sketch 50.2 (55047) - http://www.bohemiancoding.com/sketch -->
    <title>images/btnicon-add</title>
    <desc>Created with Sketch.</desc>
    <defs></defs>
    <g id="images/btnicon-add" stroke="none" stroke-width="1" fill="none" fill-rule="evenodd">
        <g id="boxicon-plus-circle" fill="#000000" fill-rule="nonzero">
            <polygon id="Shape" points="11 6 9 6 9 9 6 9 6 11 9 11 9 14 11 14 11 11 14 11 14 9 11 9"></polygon>
            <path d="M10,0 C4.486,0 0,4.486 0,10 C0,15.514 4.486,20 10,20 C15.514,20 20,15.514 20,10 C20,4.486 15.514,0 10,0 Z M10,18 C5.589,18 2,14.411 2,10 C2,5.589 5.589,2 10,2 C14.411,2 18,5.589 18,10 C18,14.411 14.411,18 10,18 Z" id="Shape"></path>
        </g>
    </g>
</svg>