<?xml version="1.0" encoding="UTF-8"?>
<svg width="358px" height="103px" viewBox="0 0 358 103" version="1.1" xmlns="http://www.w3.org/2000/svg" xmlns:xlink="http://www.w3.org/1999/xlink">
    <!-- Generator: Sketch 52.1 (67048) - http://www.bohemiancoding.com/sketch -->
    <title>SPLA</title>
    <desc>Created with Sketch.</desc>
    <defs>
        <linearGradient x1="50%" y1="0%" x2="50%" y2="100%" id="linearGradient-1">
            <stop stop-color="#7DEFFC" offset="0%"></stop>
            <stop stop-color="#47C1FF" offset="100%"></stop>
        </linearGradient>
    </defs>
    <g id="SPLA" stroke="none" stroke-width="1" fill="none" fill-rule="evenodd">
        <g id="SPLA_登入頁" transform="translate(-197.000000, -367.000000)" fill="url(#linearGradient-1)">
            <g id="Group-3" transform="translate(197.000000, 367.000000)">
                <path d="M79.0654028,71.3285308 C79.0654028,77.346128 77.5157817,82.7528354 74.4164929,87.5488152 C71.3172041,92.3447949 66.7814517,96.1000812 60.8090995,98.8147867 C54.8367474,101.529492 47.7559967,102.886825 39.5666351,102.886825 C29.7484501,102.886825 21.6497001,101.031804 15.2701422,97.3217062 C10.745633,94.6522457 7.06952441,91.0892482 4.24170616,86.6326066 C1.41388791,82.1759651 0,77.8438125 0,73.636019 C0,71.192784 0.848332749,69.1002299 2.5450237,67.3582938 C4.24171464,65.6163578 6.40213538,64.7454028 9.02635071,64.7454028 C11.15287,64.7454028 12.9513355,65.424069 14.4218009,66.7814218 C15.8922664,68.1387746 17.1477989,70.1521509 18.188436,72.8216114 C19.4552986,75.9887678 20.8239421,78.635566 22.2944076,80.7620853 C23.7648731,82.8886046 25.834805,84.6418256 28.5042654,86.0218009 C31.1737258,87.4017763 34.6801679,88.0917536 39.0236967,88.0917536 C44.9960488,88.0917536 49.8485121,86.7004878 53.5812322,83.9179147 C57.3139523,81.1353415 59.1802844,77.6628328 59.1802844,73.5002844 C59.1802844,70.1973926 58.1735962,67.5166612 56.1601896,65.4580095 C54.146783,63.3993578 51.5452292,61.8271144 48.3554502,60.7412322 C45.1656713,59.65535 40.9013853,58.5016175 35.5624645,57.28 C28.4137399,55.6059316 22.4301663,53.6491107 17.611564,51.4094787 C12.7929617,49.1698466 8.96980877,46.1158487 6.14199052,42.2473934 C3.31417227,38.378938 1.90028436,33.5717191 1.90028436,27.8255924 C1.90028436,22.3509363 3.39335,17.4871619 6.37952607,13.2341232 C9.36570213,8.98108458 13.6865436,5.71217572 19.3421801,3.42729858 C24.9978166,1.14242144 31.6487453,0 39.2951659,0 C45.4032533,0 50.6855385,0.757843922 55.1421801,2.2735545 C59.5988217,3.78926508 63.2975524,5.80264147 66.2384834,8.31374408 C69.1794144,10.8248467 71.328524,13.4603338 72.6858768,16.2202844 C74.0432295,18.980235 74.7218957,21.6722776 74.7218957,24.2964929 C74.7218957,26.6944828 73.873563,28.8549035 72.176872,30.7778199 C70.4801811,32.7007363 68.3650048,33.6621801 65.8312796,33.6621801 C63.5237799,33.6621801 61.7705589,33.0853138 60.571564,31.931564 C59.372569,30.7778141 58.0717922,28.8888599 56.6691943,26.2646445 C54.8593906,22.5093019 52.6876588,19.5797262 50.1539336,17.4758294 C47.6202085,15.3719326 43.5482113,14.32 37.9378199,14.32 C32.7346343,14.32 28.538215,15.4624214 25.348436,17.7472986 C22.158657,20.0321757 20.5637915,22.7807738 20.5637915,25.9931754 C20.5637915,27.9839594 21.1067244,29.7032471 22.1926066,31.15109 C23.2784888,32.598933 24.7715545,33.8431544 26.6718483,34.8837915 C28.5721422,35.9244286 30.4950298,36.738828 32.4405687,37.3270142 C34.3861077,37.9152004 37.598461,38.7748443 42.0777251,39.9059716 C47.6881165,41.2180792 52.7668019,42.6659005 57.3139336,44.2494787 C61.8610654,45.8330569 65.7294627,47.7559445 68.9192417,50.0181991 C72.1090207,52.2804536 74.5974634,55.1421628 76.3846445,58.6034123 C78.1718257,62.0646619 79.0654028,66.3063256 79.0654028,71.3285308 Z M134.784455,62.4379147 L116.32455,62.4379147 L116.32455,90.6028436 C116.32455,94.6296568 115.374417,97.6836547 113.474123,99.7649289 C111.573829,101.846203 109.175875,102.886825 106.28019,102.886825 C103.248768,102.886825 100.80557,101.857514 98.9505213,99.7988626 C97.0954726,97.7402109 96.1679621,94.7201463 96.1679621,90.7385782 L96.1679621,14.0485308 C96.1679621,9.6145118 97.1859614,6.44740287 99.2219905,4.547109 C101.25802,2.64681514 104.492995,1.69668246 108.927014,1.69668246 L134.784455,1.69668246 C142.430876,1.69668246 148.312649,2.28485984 152.429953,3.46123223 C156.502011,4.59235953 160.019764,6.47000268 162.983318,9.09421801 C165.946871,11.7184333 168.197781,14.9307867 169.736114,18.7313744 C171.274447,22.5319621 172.043602,26.8075592 172.043602,31.5582938 C172.043602,41.6931944 168.921737,49.3734336 162.677915,54.5992417 C156.434092,59.8250498 147.136365,62.4379147 134.784455,62.4379147 Z M129.898009,16.83109 L116.32455,16.83109 L116.32455,47.2356398 L129.898009,47.2356398 C134.648744,47.2356398 138.618941,46.7379513 141.80872,45.7425592 C144.998499,44.7471672 147.430387,43.1183683 149.104455,40.8561137 C150.778523,38.5938591 151.615545,35.6303501 151.615545,31.9654976 C151.615545,27.5767237 150.326079,24.0024151 147.747109,21.2424645 C144.851423,18.3015335 138.901783,16.83109 129.898009,16.83109 Z M208.624076,12.2161137 L208.624076,84.6305213 L249.48019,84.6305213 C252.737836,84.6305213 255.23759,85.4222986 256.979526,87.0058768 C258.721462,88.589455 259.592417,90.5802092 259.592417,92.9781991 C259.592417,95.421434 258.732773,97.4008771 257.01346,98.9165877 C255.294146,100.432298 252.783081,101.190142 249.48019,101.190142 L200.819336,101.190142 C196.430563,101.190142 193.274765,100.217387 191.351848,98.2718483 C189.428932,96.3263094 188.467488,93.1818227 188.467488,88.8382938 L188.467488,12.2161137 C188.467488,8.14405547 189.383688,5.09005757 191.216114,3.05402844 C193.04854,1.0179993 195.457805,0 198.443981,0 C201.475402,0 203.929912,1.0066882 205.807583,3.02009479 C207.685254,5.03350138 208.624076,8.09881038 208.624076,12.2161137 Z M336.486066,89.9241706 L331.735355,77.4365877 L291.286445,77.4365877 L286.535735,90.1956398 C284.680686,95.1725999 283.097131,98.5319976 281.785024,100.273934 C280.472916,102.01587 278.323806,102.886825 275.33763,102.886825 C272.803905,102.886825 270.564307,101.959314 268.618768,100.104265 C266.673229,98.2492166 265.700474,96.1453514 265.700474,93.7926066 C265.700474,92.4352539 265.926696,91.0326771 266.379147,89.5848341 C266.831598,88.1369912 267.578131,86.1236148 268.618768,83.5446445 L294.069005,18.9349763 C294.792926,17.0799275 295.663881,14.8516402 296.681896,12.2500474 C297.69991,9.64845461 298.785776,7.48803387 299.939526,5.76872038 C301.093276,4.04940689 302.608964,2.65814118 304.486635,1.59488152 C306.364306,0.531621856 308.683083,0 311.443033,0 C314.248229,0 316.589627,0.531621856 318.467299,1.59488152 C320.34497,2.65814118 321.860658,4.02678468 323.014408,5.70085308 C324.168157,7.37492148 325.140912,9.17338691 325.932701,11.0963033 C326.724491,13.0192197 327.731179,15.5868402 328.952796,18.7992417 L354.945972,83.0017062 C356.982001,87.8881761 358,91.4398625 358,93.656872 C358,95.9643717 357.038556,98.079548 355.11564,100.002464 C353.192723,101.925381 350.873947,102.886825 348.159242,102.886825 C346.575663,102.886825 345.218331,102.604047 344.087204,102.038483 C342.956076,101.47292 342.005944,100.703765 341.236777,99.7309953 C340.467611,98.7582258 339.6419,97.2651601 338.759621,95.2517536 C337.877342,93.238347 337.119498,91.4625037 336.486066,89.9241706 Z M296.580095,62.3021801 L326.305972,62.3021801 L311.307299,21.2424645 L296.580095,62.3021801 Z" id="SPLA"></path>
            </g>
        </g>
    </g>
</svg>