<?xml version="1.0" encoding="UTF-8"?>
<svg width="100px" height="60px" viewBox="0 0 100 60" version="1.1" xmlns="http://www.w3.org/2000/svg" xmlns:xlink="http://www.w3.org/1999/xlink">
    <!-- Generator: Sketch 52.1 (67048) - http://www.bohemiancoding.com/sketch -->
    <title>images/SPLA-logo</title>
    <desc>Created with Sketch.</desc>
    <defs>
        <linearGradient x1="100%" y1="0%" x2="0%" y2="0%" id="linearGradient-1">
            <stop stop-color="#484848" stop-opacity="0" offset="0%"></stop>
            <stop stop-color="#59C3FF" offset="50.5261019%"></stop>
            <stop stop-color="#333333" stop-opacity="0" offset="100%"></stop>
        </linearGradient>
        <linearGradient x1="50%" y1="0%" x2="50%" y2="100%" id="linearGradient-2">
            <stop stop-color="#7DEFFC" offset="0%"></stop>
            <stop stop-color="#47C1FF" offset="100%"></stop>
        </linearGradient>
        <path d="M30,31.8654354 C30,33.0351861 29.7060115,34.0861871 29.1180258,35.0184697 C28.53004,35.9507522 27.6695336,36.6807361 26.5364807,37.2084433 C25.4034278,37.7361504 24.0600936,38 22.5064378,38 C20.6437675,38 19.1073022,37.6394055 17.8969957,36.9182058 C17.0386223,36.3992938 16.3412044,35.7066886 15.804721,34.8403694 C15.2682377,33.9740502 15,33.1319302 15,32.3139842 C15,31.8390478 15.1609426,31.4322796 15.4828326,31.0936675 C15.8047226,30.7550555 16.2145898,30.585752 16.7124464,30.585752 C17.1158818,30.585752 17.4570802,30.7176768 17.7360515,30.9815303 C18.0150229,31.2453839 18.2532179,31.6367608 18.4506438,32.1556728 C18.6909883,32.7713311 18.9506424,33.2858379 19.2296137,33.6992084 C19.5085851,34.112579 19.901285,34.4533848 20.4077253,34.7216359 C20.9141656,34.989887 21.579395,35.1240106 22.4034335,35.1240106 C23.5364864,35.1240106 24.457078,34.8535647 25.1652361,34.3126649 C25.8733941,33.7717651 26.2274678,33.0967499 26.2274678,32.2875989 C26.2274678,31.6455553 26.0364826,31.1244523 25.6545064,30.7242744 C25.2725303,30.3240965 24.778973,30.0184707 24.1738197,29.8073879 C23.5686665,29.596305 22.7596617,29.3720328 21.7467811,29.1345646 C20.3905512,28.8091453 19.2553694,28.4287621 18.3412017,27.9934037 C17.4270341,27.5580453 16.7017194,26.9643837 16.1652361,26.2124011 C15.6287527,25.4604184 15.360515,24.5259511 15.360515,23.408971 C15.360515,22.3447616 15.643774,21.3993005 16.2103004,20.5725594 C16.7768269,19.7458182 17.5965612,19.1103804 18.6695279,18.6662269 C19.7424946,18.2220734 21.0042846,18 22.4549356,18 C23.6137397,18 24.6158756,18.147316 25.4613734,18.4419525 C26.3068712,18.736589 27.0085809,19.1279659 27.5665236,19.616095 C28.1244663,20.1042241 28.5321876,20.6165321 28.7896996,21.1530343 C29.0472116,21.6895365 29.1759657,22.2128383 29.1759657,22.7229551 C29.1759657,23.1890964 29.0150231,23.6090571 28.693133,23.9828496 C28.371243,24.3566422 27.9699595,24.5435356 27.4892704,24.5435356 C27.0515,24.5435356 26.7188853,24.4313995 26.4914163,24.207124 C26.2639474,23.9828485 26.0171687,23.6156578 25.751073,23.1055409 C25.4077236,22.375546 24.9957106,21.8060706 24.5150215,21.3970976 C24.0343324,20.9881246 23.2618079,20.7836412 22.1974249,20.7836412 C21.2102955,20.7836412 20.4141661,21.0057146 19.8090129,21.4498681 C19.2038596,21.8940216 18.9012876,22.428317 18.9012876,23.0527704 C18.9012876,23.4397557 19.0042908,23.7739652 19.2103004,24.055409 C19.41631,24.3368528 19.699569,24.5787149 20.0600858,24.7810026 C20.4206027,24.9832904 20.7854059,25.1416001 21.1545064,25.2559367 C21.523607,25.3702732 22.133043,25.537378 22.9828326,25.7572559 C24.0472156,26.0123144 25.0107253,26.293754 25.8733906,26.6015831 C26.7360558,26.9094123 27.4699541,27.2831992 28.0751073,27.7229551 C28.6802605,28.1627111 29.1523588,28.718994 29.4914163,29.3918206 C29.8304738,30.0646472 30,30.8891772 30,31.8654354 Z M41.6341682,30.0053655 L37.9847943,30.0053655 L37.9847943,35.5720993 C37.9847943,36.3679897 37.7969607,36.9716054 37.421288,37.3829645 C37.0456153,37.7943235 36.5715592,38 35.9991055,38 C35.3998181,38 34.9168176,37.7965592 34.5500894,37.3896714 C34.1833613,36.9827836 34,36.3858747 34,35.5989269 L34,20.4413146 C34,19.5649408 34.2012502,18.938969 34.6037567,18.5633803 C35.0062632,18.1877915 35.6457917,18 36.5223614,18 L41.6341682,18 C43.1458036,18 44.3085827,18.1162519 45.1225403,18.3487592 C45.9275532,18.5723239 46.6229845,18.9434358 47.2088551,19.462106 C47.7947256,19.9807761 48.2397123,20.6156904 48.5438283,21.3668679 C48.8479443,22.1180453 49,22.9631073 49,23.9020791 C49,25.905219 48.3828326,27.4232007 47.1484794,28.4560698 C45.9141262,29.4889388 44.0760408,30.0053655 41.6341682,30.0053655 Z M40.6923077,21 L38,21 L38,27 L40.6923077,27 C41.6346201,27 42.4221122,26.9017867 43.0548077,26.7053571 C43.6875032,26.5089276 44.1698701,26.1875022 44.5019231,25.7410714 C44.833976,25.2946406 45,24.709825 45,23.9866071 C45,23.1205314 44.7442333,22.4151813 44.2326923,21.8705357 C43.6583305,21.2901757 42.4782141,21 40.6923077,21 Z M55.9675573,20.4144869 L55.9675573,34.7270288 L64.009542,34.7270288 C64.6507666,34.7270288 65.14281,34.8835218 65.485687,35.1965124 C65.8285641,35.509503 66,35.902971 66,36.3769282 C66,36.859828 65.8307905,37.2510604 65.4923664,37.5506372 C65.1539423,37.8502139 64.6596725,38 64.009542,38 L54.4312977,38 C53.5674257,38 52.9462487,37.8077372 52.5677481,37.4232059 C52.1892475,37.0386746 52,36.417174 52,35.5586854 L52,20.4144869 C52,19.6096539 52.1803417,19.0060382 52.5410305,18.6036217 C52.9017194,18.2012052 53.3759513,18 53.9637405,18 C54.5604356,18 55.0435732,18.1989696 55.4131679,18.5969148 C55.7827627,18.99486 55.9675573,19.6007113 55.9675573,20.4144869 Z M80.8044118,35.4802111 L79.8779412,33.0527704 L71.9897059,33.0527704 L71.0632353,35.5329815 C70.7014688,36.5004446 70.3926483,37.1534724 70.1367647,37.4920844 C69.8808811,37.8306965 69.4617676,38 68.8794118,38 C68.3852916,38 67.9485313,37.8197028 67.5691176,37.4591029 C67.189704,37.098503 67,36.6895361 67,36.23219 C67,35.9683364 67.0441172,35.6956918 67.1323529,35.414248 C67.2205887,35.1328042 67.3661755,34.7414273 67.5691176,34.2401055 L72.5323529,21.6807388 C72.6735301,21.3201389 72.8433814,20.8869858 73.0419118,20.3812665 C73.2404422,19.8755472 73.4522048,19.4555865 73.6772059,19.121372 C73.902207,18.7871575 74.1977923,18.5167117 74.5639706,18.3100264 C74.9301489,18.1033411 75.3823503,18 75.9205882,18 C76.4676498,18 76.9242629,18.1033411 77.2904412,18.3100264 C77.6566195,18.5167117 77.9522048,18.78276 78.1772059,19.1081794 C78.402207,19.4335988 78.591911,19.7831995 78.7463235,20.1569921 C78.9007361,20.5307846 79.0970576,21.0299001 79.3352941,21.6543536 L84.4044118,34.1345646 C84.8014726,35.0844375 85,35.7748439 85,36.2058047 C85,36.6543558 84.8125019,37.0655214 84.4375,37.439314 C84.0624981,37.8131065 83.6102968,38 83.0808824,38 C82.7720573,38 82.507354,37.9450313 82.2867647,37.8350923 C82.0661754,37.7251534 81.8808831,37.5756386 81.7308824,37.3865435 C81.5808816,37.1974485 81.4198538,36.9072139 81.2477941,36.5158311 C81.0757344,36.1244484 80.9279418,35.7792451 80.8044118,35.4802111 Z M73,30 L79,30 L75.9726027,22 L73,30 Z" id="path-3"></path>
        <filter x="-20.7%" y="-62.5%" width="141.4%" height="245.0%" filterUnits="objectBoundingBox" id="filter-4">
            <feOffset dx="0" dy="2" in="SourceAlpha" result="shadowOffsetOuter1"></feOffset>
            <feGaussianBlur stdDeviation="4.5" in="shadowOffsetOuter1" result="shadowBlurOuter1"></feGaussianBlur>
            <feColorMatrix values="0 0 0 0 0   0 0 0 0 0   0 0 0 0 0  0 0 0 0.5 0" type="matrix" in="shadowBlurOuter1"></feColorMatrix>
        </filter>
    </defs>
    <g id="Symbols" stroke="none" stroke-width="1" fill="none" fill-rule="evenodd">
        <g id="SPLA/side-menu">
            <rect id="Rectangle-2" fill="#374B62" x="0" y="0" width="100" height="900"></rect>
            <rect id="Rectangle" fill="url(#linearGradient-1)" transform="translate(50.500000, 51.500000) scale(1, -1) translate(-50.500000, -51.500000) " x="1" y="50" width="99" height="3"></rect>
            <g id="SPLA">
                <use fill="black" fill-opacity="1" filter="url(#filter-4)" xlink:href="#path-3"></use>
                <use fill="url(#linearGradient-2)" fill-rule="evenodd" xlink:href="#path-3"></use>
            </g>
        </g>
    </g>
</svg>